<?xml version="1.0" encoding="utf-8"?>
<!-- Generator: Adobe Illustrator 16.0.0, SVG Export Plug-In . SVG Version: 6.00 Build 0)  -->
<!DOCTYPE svg PUBLIC "-//W3C//DTD SVG 1.1//EN" "http://www.w3.org/Graphics/SVG/1.1/DTD/svg11.dtd">
<svg version="1.1" id="Layer_1" xmlns="http://www.w3.org/2000/svg" xmlns:xlink="http://www.w3.org/1999/xlink" x="0px" y="0px"
	 width="960px" height="560px" viewBox="0 0 960 560" enable-background="new 0 0 960 560" xml:space="preserve">
<path fill="#1F2A64" d="M453.463,245.396v21.708c0,26.144-13.07,41.082-38.277,41.082s-38.281-14.938-38.281-41.082v-84.962
	c0-26.14,13.074-41.079,38.281-41.079s38.277,14.938,38.277,41.079v15.875h-24.273v-17.509c0-11.671-5.135-16.104-13.303-16.104
	c-8.172,0-13.307,4.433-13.307,16.104v88.23c0,11.67,5.135,15.871,13.307,15.871c8.168,0,13.303-4.2,13.303-15.871v-23.342H453.463z
	"/>
<path fill="#1F2A64" d="M527.688,182.142c0-26.14,13.771-41.079,38.979-41.079s38.979,14.938,38.979,41.079v84.962
	c0,26.142-13.771,41.082-38.979,41.082s-38.979-14.938-38.979-41.082V182.142z M553.361,268.738
	c0,11.668,5.137,16.105,13.305,16.105c8.17,0,13.307-4.438,13.307-16.105v-88.23c0-11.671-5.137-16.104-13.307-16.104
	c-8.168,0-13.305,4.433-13.305,16.104V268.738z"/>
<path fill="#1F2A64" d="M736.59,306.316c-1.401-4.2-2.336-6.771-2.336-20.074v-25.673c0-15.173-5.135-20.775-16.807-20.775h-8.869
	v66.522h-25.674V142.929h38.746c26.606,0,38.045,12.371,38.045,37.579v12.838c0,16.806-5.367,27.542-16.808,32.912v0.467
	c12.84,5.368,17.039,17.505,17.039,34.543v25.208c0,7.938,0.234,13.771,2.801,19.84H736.59L736.59,306.316z M708.578,166.27v50.183
	h10.037c9.569,0,15.403-4.2,15.403-17.271v-16.104c0-11.673-3.969-16.809-13.069-16.809L708.578,166.27L708.578,166.27z"/>
<polygon fill="#1F2A64" points="863.096,211.786 898.34,211.786 898.34,235.127 863.096,235.127 863.096,282.975 907.445,282.975 
	907.445,306.316 837.42,306.316 837.42,142.929 907.445,142.929 907.445,166.27 863.096,166.27 "/>
<path fill="#919191" d="M409.001,380.889v8.787c0,10.582-5.292,16.629-15.494,16.629c-10.204,0-15.496-6.047-15.496-16.629v-34.389
	c0-10.58,5.292-16.625,15.496-16.625c10.202,0,15.494,6.045,15.494,16.625v6.426h-9.825v-7.086c0-4.723-2.078-6.518-5.386-6.518
	s-5.383,1.795-5.383,6.518v35.711c0,4.725,2.075,6.422,5.383,6.422s5.386-1.697,5.386-6.422v-9.449H409.001L409.001,380.889z"/>
<path fill="#919191" d="M439.037,355.287c0-10.58,5.573-16.625,15.773-16.625c10.202,0,15.775,6.045,15.775,16.625v34.389
	c0,10.582-5.573,16.629-15.775,16.629c-10.2,0-15.773-6.047-15.773-16.629V355.287z M449.428,390.338
	c0,4.725,2.075,6.519,5.383,6.519c3.31,0,5.385-1.794,5.385-6.519v-35.711c0-4.723-2.075-6.518-5.385-6.518
	c-3.308,0-5.383,1.795-5.383,6.518V390.338z"/>
<polygon fill="#919191" points="523.77,386.369 523.959,386.369 530.947,339.416 545.402,339.416 545.402,405.547 535.578,405.547 
	535.578,358.121 535.389,358.121 528.398,405.547 518.572,405.547 511.014,358.785 510.826,358.785 510.826,405.547 
	501.758,405.547 501.758,339.416 516.211,339.416 "/>
<path fill="#919191" d="M608.309,355.76v8.598c0,10.582-5.1,16.345-15.493,16.345h-4.912v24.846h-10.392v-66.131h15.304
	C603.209,339.416,608.309,345.178,608.309,355.76 M587.902,348.863v22.391h4.912c3.309,0,5.104-1.512,5.104-6.236V355.1
	c0-4.725-1.795-6.235-5.104-6.235L587.902,348.863L587.902,348.863z"/>
<polygon fill="#919191" points="648.072,367.285 662.34,367.285 662.34,376.734 648.072,376.734 648.072,396.1 666.025,396.1 
	666.025,405.547 637.682,405.547 637.682,339.416 666.025,339.416 666.025,348.863 648.072,348.863 "/>
<polygon fill="#919191" points="693.982,339.416 726.102,339.416 726.102,348.863 715.236,348.863 715.236,405.547 704.844,405.547 
	704.844,348.863 693.982,348.863 "/>
<polygon fill="#919191" points="765.582,367.285 779.848,367.285 779.848,376.734 765.582,376.734 765.582,396.1 783.531,396.1 
	783.531,405.547 755.189,405.547 755.189,339.416 783.531,339.416 783.531,348.863 765.582,348.863 "/>
<polygon fill="#919191" points="823.959,357.65 823.77,357.65 823.77,405.547 814.418,405.547 814.418,339.416 827.455,339.416 
	837.939,379.002 838.131,379.002 838.131,339.416 847.389,339.416 847.389,405.547 836.713,405.547 "/>
<polygon fill="#919191" points="876.383,339.416 908.502,339.416 908.502,348.863 897.637,348.863 897.637,405.547 887.246,405.547 
	887.246,348.863 876.383,348.863 "/>
<path fill="#1F2A64" d="M281.36,145.619l21.401,32.777c0,0,1.721-1.254,3.612-1.475l0.332-15.891
	C306.706,161.03,295.243,152.13,281.36,145.619"/>
<path fill="#1F2A64" d="M309.008,162.818c0,0-0.361,14.006-0.313,14.152c0.05,0.148,4.479,0.817,5.953,4.847l9.416-4.945
	C324.064,176.872,316.17,168.075,309.008,162.818"/>
<path fill="#1F2A64" d="M315.122,184.213l10.516-5.478c0,0,17.519,17.763,19.435,40.711l-30.885-31.032
	C314.188,188.414,315.342,186.424,315.122,184.213"/>
<path fill="#1F2A64" d="M236.066,131.479l-2.458,4.583c0,0,2.458,2.014,2.666,5.024l36.302,0.675
	C272.576,141.761,258.781,135.582,236.066,131.479"/>
<polygon fill="#1F2A64" points="236.249,143.357 235.98,144.365 300.575,179.28 277.774,143.947 "/>
<path fill="#1F2A64" d="M233.62,131.03l-2.036,3.787c0,0-5.04-2.156-8.91,2.155l-17.625-9.278
	C205.048,127.694,222.435,128.726,233.62,131.03"/>
<path fill="#1F2A64" d="M194.86,127.301l-11.057,30.333c0,0,1.856,1.24,2.507,2.603l34.607-17.298c0,0-0.183-2.566,0.553-3.943
	l-21.979-11.559L194.86,127.301z"/>
<path fill="#1F2A64" d="M168.1,128.265l10.541,28.241c0,0,1.566-0.267,2.993,0.185l10.721-29.403
	C192.355,127.288,177.411,127.105,168.1,128.265"/>
<path fill="#1F2A64" d="M165.668,128.504l10.697,28.665l-0.875,0.479l-27.061-26.72
	C148.429,130.929,158.222,129.095,165.668,128.504"/>
<path fill="#1F2A64" d="M145.682,131.416l-26.912,26.279c0,0,1.096,1.272,1.409,3.059l51.763,2.957c0,0,0.108-2.482,1.779-4.496
	L145.682,131.416z"/>
<path fill="#1F2A64" d="M141.518,132.278l-24.444,23.787l-0.6-0.36l4.737-17.851C121.211,137.854,131.53,134.341,141.518,132.278"/>
<path fill="#1F2A64" d="M118.497,138.788l-4.227,16.033c0,0-2.947-0.663-5.38,0.81l-6.782-9.337
	C102.107,146.293,109.896,141.687,118.497,138.788"/>
<path fill="#1F2A64" d="M100.102,147.494l6.933,9.574c0,0-4.213,4.486-0.711,9.794l-21.739,19.645c0,0-0.912-0.83-1.843-1.217
	l10.688-33.336C93.43,151.954,98.701,148.232,100.102,147.494"/>
<path fill="#1F2A64" d="M90.16,154.405l-9.703,30.213c0,0-0.856-0.167-2.073-0.009l-1.815-17.967
	C76.569,166.642,84.448,158.643,90.16,154.405"/>
<path fill="#1F2A64" d="M107.942,168.543c0,0,1.525,1.327,3.637,1.497l-2.703,44.081c0,0-1.841,0.244-2.998,1.105l-20.196-18.428
	c0,0,3.096-4.004,0.368-8.5L107.942,168.543z"/>
<path fill="#1F2A64" d="M187.158,162.375l34.397-17.149c0,0,1.021,2.26,3.343,3.526l-5.995,92.495c0,0-1.032,0-1.72,0.344
	l-32.335-71.697C184.848,169.894,188.338,166.848,187.158,162.375"/>
<path fill="#1F2A64" d="M234.935,146.417l65.293,35.371c0,0-1.189,2.599,0.026,5.795l-24.425,18.595c0,0-3.733-4.295-9.298-1.724
	l-33.869-55.9C232.663,148.555,234.076,147.719,234.935,146.417"/>
<path fill="#1F2A64" d="M301.499,189.584L277.12,208.15c0,0,2.349,4.644-1.623,8.735l23.561,31.751c0,0,1.732-1.299,4.036-1.391
	l3.168-54.98C306.262,192.265,303.536,191.989,301.499,189.584"/>
<path fill="#1F2A64" d="M308.604,192.247l-3.161,55.265c0,0,1.851,0.304,3.695,2.165l36.055-26.923l-32.425-32.562
	C312.768,190.192,311.349,191.823,308.604,192.247"/>
<path fill="#1F2A64" d="M227.208,149.586c0,0,1.855,0.319,3.279-0.123l34.142,56.389c0,0-4.545,4.159-0.8,10.087l-39.077,27.211
	c0,0-2.077-1.524-3.552-1.72L227.208,149.586z"/>
<path fill="#1F2A64" d="M113.999,170.005c0,0,1.303-0.049,2.986-1.205l42.15,42.299c0,0-1.866,2.113-1.928,4.608l-40.075,2.861
	c0,0-1.731-3.808-5.897-4.446L113.999,170.005z"/>
<path fill="#1F2A64" d="M175.5,170.668l-10.043,37.868c0,0-2.691-0.184-4.46,1.069l-42.311-42.402c0,0,1.727-2.175,1.66-4.109
	l51.836,2.985C172.181,166.08,172.845,169.175,175.5,170.668"/>
<path fill="#1F2A64" d="M177.645,171.645l-9.859,37.409c0,0,6.694,2.794,4.35,9.997l42.264,24.076l0.691-0.535l-32.185-71.399
	C182.906,171.192,180.686,172.39,177.645,171.645"/>
<path fill="#1F2A64" d="M265.537,217.622c0,0,3.834,2.911,7.999,0.59c0,0,23.734,31.945,23.771,32.056
	c0.037,0.11-1.142,1.658-1.373,3.123l-68.671-5.261c0,0-0.037-1.484-1.022-3.169L265.537,217.622z"/>
<path fill="#1F2A64" d="M345.034,225.731c0,0-0.606,13.303-10.597,23.052l-23.513,4.165l-0.479-1.308L345.034,225.731z"/>
<path fill="#1F2A64" d="M311.248,255.279l20.391-3.611c0,0-9.059,9.453-25.338,15l-1.189-4.129
	C305.111,262.539,310.843,260.992,311.248,255.279"/>
<path fill="#1F2A64" d="M117.792,220.884c0,0,39.436-2.829,39.583-2.829s0.525,3.843,5.133,5.566l-18.383,66.515
	c0,0-1.39-0.19-3.012,0.399l-27.329-61.977C113.784,228.559,117.885,226.685,117.792,220.884"/>
<path fill="#1F2A64" d="M146.448,290.586c0,0,1.17,0.453,1.677,0.932l64.276-39.665c0,0-1.476-3.336,0.498-6.892l-41.924-23.884
	c0,0-2.1,2.876-6.118,2.949L146.448,290.586z"/>
<path fill="#1F2A64" d="M296.544,258.396l-33.464,19.853l-36.413-26.266c0,0,0.454-1.155,0.454-1.548l68.675,5.308
	C295.796,255.744,295.945,257.268,296.544,258.396"/>
<path fill="#1F2A64" d="M302.638,262.653l1.468,4.927c0,0-18.777,7.758-37.206,11.094l30.984-18.306
	C297.884,260.368,299.947,262.616,302.638,262.653"/>
<path fill="#1F2A64" d="M74.405,168.862l1.658,16.475c0,0-2.174,0.958-3.206,2.875l-9.62-5.565
	C63.237,182.646,67.034,177.044,74.405,168.862"/>
<path fill="#1F2A64" d="M71.907,190.413c0,0-0.563,2.737,0.284,4.69l-17.174,0.59c0,0,5.05-8.845,6.856-11.167L71.907,190.413z"/>
<path fill="#1F2A64" d="M73.224,197.352l-28.507,23.551c0,0,4.063-14.267,9.075-22.768L73.224,197.352z"/>
<path fill="#1F2A64" d="M80.725,199.913c0,0,1.759-0.24,3.326-1.436l20.163,18.365c0,0-4.177,4.374,0.098,10.124l-23.126,28.606
	c0,0-1.696-1.044-2.039-1.044L80.725,199.913z"/>
<path fill="#1F2A64" d="M75.166,198.789c0,0,1.867,1.032,3.194,1.179L76.8,254.11c0,0-2.112-0.112-4.275,1.215l-29.448-27.543
	l0.541-2.949L75.166,198.789z"/>
<path fill="#1F2A64" d="M42.523,230.484c0,0-1.806,10.947-1.843,16.586l28.785,11.866c0,0,0.663-1.399,1.291-2.1L42.523,230.484z"/>
<path fill="#1F2A64" d="M40.571,249.538c0,0-0.259,10.947,0.553,17.323l27.899-3.908c0,0-0.176-0.911-0.064-1.684L40.571,249.538z"
	/>
<path fill="#1F2A64" d="M41.307,269.158c0,0,1.278,11.206,4.62,24.226l25.037-26.301c0,0-0.908-0.97-1.253-1.868L41.307,269.158z"/>
<path fill="#1F2A64" d="M106.15,228.421l-23.465,28.844c0,0,2.505,2.728,1.326,6.708l53.551,29.141c0,0,0.812-1.019,1.511-1.448
	l-27.494-62.312C111.579,229.354,108.545,229.919,106.15,228.421"/>
<path fill="#1F2A64" d="M72.819,268.558L46.787,295.93l1.057,3.365l19.078,16.818c0,0,2.015-1.953,4.89-2.027l3.526-44.595
	C75.338,269.491,73.653,269.159,72.819,268.558"/>
<path fill="#1F2A64" d="M136.027,298.938c0,0-0.38-1.978,0.393-3.795l-53.244-29.178c0,0-1.671,3.146-5.603,3.488l-3.402,44.891
	c0,0,3.391,1.105,4.864,3.907L136.027,298.938z"/>
<path fill="#1F2A64" d="M49.465,303.854c0,0,3.304,9.064,7.506,15.271l7.703,0.64c0,0,0.442-1.378,0.774-1.83L49.465,303.854z"/>
<path fill="#1F2A64" d="M64.407,322.1l-5.639-0.479c6.92,8.468,9.758,10.604,13.858,13.636l-1.032-5.713
	C71.594,329.543,65.334,328.818,64.407,322.1"/>
<path fill="#1F2A64" d="M73.962,329.295l1.4,8.145c0,0,11.057,8.146,18.171,11.979L76.321,328.3
	C76.321,328.299,75.99,328.741,73.962,329.295"/>
<path fill="#1F2A64" d="M78.145,326.697l0.664-1.033l44.153,14.964c0,0-1.142,2.247-0.59,5.196l-22.417,7.205l-0.673-0.369
	L78.145,326.697z"/>
<path fill="#1F2A64" d="M139.712,304.49l-9.085,31.826c0,0-3.592-0.407-6.173,2.395l-44.779-15.092c0,0,0.478-1.326,0.111-3.096
	l56.941-19.275C136.727,301.248,137.666,303.385,139.712,304.49"/>
<path fill="#1F2A64" d="M141.794,305.357l-8.863,31.528c0,0,1.259,0.603,1.75,0.996l26.578-18.698l-12.887-15.138
	C148.373,304.047,145.726,306.045,141.794,305.357"/>
<path fill="#1F2A64" d="M150.538,301.45l-0.515,0.849l13.019,15.571c0,0,7.98-0.665,20.196-3.963L150.538,301.45z"/>
<path fill="#1F2A64" d="M215.511,255.438l-19.739,54.431l-8.699,2.9l-35.771-13.514c0,0,0.725-3.311-1.436-6.061l63.765-39.371
	C213.631,253.824,214.673,255.041,215.511,255.438"/>
<path fill="#1F2A64" d="M217.674,256.381c0,0,0.811,0.258,1.353,0.209l4.594,38.219c0,0-10.517,8.575-24.964,13.957L217.674,256.381
	z"/>
<path fill="#1F2A64" d="M221.361,256.407c0,0,4.422,36.829,4.471,36.782c0.048-0.051,6.991-4.607,9.608-5.737l-13.638-31.143
	L221.361,256.407z"/>
<path fill="#1F2A64" d="M223.909,255.289c0,0,1.124-0.83,1.494-1.345l35.969,25.89c0,0-15.109,2.434-23.808,6.615L223.909,255.289z"
	/>
<path fill="#1F2A64" d="M160.18,322.623c0,0-6.242,15.038-8.255,27.076l-14.3-5.404c0,0,0.343-2.752-1.377-4.669L160.18,322.623z"/>
<path fill="#1F2A64" d="M137.206,346.654c0,0-1.252,2.727-2.801,3.686l15.553,37.002c0,0-1.031-21.449,1.401-35.234L137.206,346.654
	z"/>
<path fill="#1F2A64" d="M130.203,351.814l-2.653,16.143l5.381,35.527l17.102-10.32l-17.84-41.719
	C132.193,351.445,131.235,351.814,130.203,351.814"/>
<path fill="#1F2A64" d="M123.201,347.98l-20.418,6.635c0,0,16.29,8.477,22.85,10.982l2.285-14.078
	C127.918,351.52,124.823,350.855,123.201,347.98"/>
</svg>
